<?xml version="1.0"?>
<svg xmlns="http://www.w3.org/2000/svg" xmlns:xlink="http://www.w3.org/1999/xlink" xmlns:svgjs="http://svgjs.com/svgjs" version="1.1" width="512" height="512" x="0" y="0" viewBox="0 0 512 512" style="enable-background:new 0 0 512 512" xml:space="preserve" class=""><g><g xmlns="http://www.w3.org/2000/svg"><g><g><g><g><g><g><circle cx="256" cy="256" fill="#a260e5" r="256" data-original="#a260e5" style="" class=""/></g></g></g></g></g></g><path d="m511.953 260.936-194.808-194.808-124.245 56.09 68.252 68.253-110.938 246.365 73.096 73.096c10.704 1.365 21.615 2.068 32.69 2.068 139.736 0 253.323-111.957 255.953-251.064z" fill="#7a3eb5" data-original="#7a3eb5" style="" class=""/><g><path d="m311.492 142.56v-57.604h-110.984v57.604l-49.114 48.53c-7.521 7.432-11.754 17.566-11.754 28.139v190.696c0 21.848 17.711 39.559 39.559 39.559h153.603c21.848 0 39.559-17.711 39.559-39.559v-190.696c0-10.574-4.233-20.707-11.754-28.139z" fill="#ffe000" data-original="#ffe000" style="" class=""/></g><g><path d="m360.606 191.09-49.114-48.53v-57.604h-55.372v364.528h76.681c21.848 0 39.559-17.711 39.559-39.559v-190.696c.001-10.574-4.232-20.707-11.754-28.139z" fill="#ffc200" data-original="#ffc200" style="" class=""/></g><g><path d="m218.756 59.331h24.76v62.887h-24.76z" fill="#ffffff" data-original="#ffffff" style="" class=""/></g><g><path d="m267.842 59.331h24.76v62.887h-24.76z" fill="#e9edf5" data-original="#e9edf5" style=""/></g><g><path d="m241.372 59.331h29.256v62.887h-29.256z" fill="#e9edf5" data-original="#e9edf5" style=""/></g><g><path d="m256.121 59.331h14.507v62.887h-14.507z" fill="#cdd2e1" data-original="#cdd2e1" style="" class=""/></g><g><g><path d="m222.156 122.218h-29.256v-48.981c0-7.68 6.226-13.906 13.906-13.906h15.35z" fill="#e9edf5" data-original="#e9edf5" style=""/></g><g><path d="m319.1 122.218h-29.256v-62.887h15.35c7.68 0 13.906 6.226 13.906 13.906z" fill="#cdd2e1" data-original="#cdd2e1" style="" class=""/></g></g><g><path d="m161.721 234.133h188.558v170.507h-188.558z" fill="#ffffff" data-original="#ffffff" style="" class=""/></g><g><path d="m256.121 234.133h94.158v170.507h-94.158z" fill="#e9edf5" data-original="#e9edf5" style=""/></g><g><circle cx="312.724" cy="265.262" fill="#00a2db" r="9.262" data-original="#00a2db" style=""/></g><g><circle cx="185.308" cy="325.403" fill="#10b8e0" r="6.407" data-original="#10b8e0" style=""/></g><g><circle cx="317.145" cy="364.941" fill="#00a2db" r="13.683" data-original="#00a2db" style=""/></g><g><circle cx="202.743" cy="371.457" fill="#10b8e0" r="13.683" data-original="#10b8e0" style=""/></g><g><circle cx="190.822" cy="261.921" fill="#10b8e0" r="11.921" data-original="#10b8e0" style=""/></g><g><path d="m303.462 321.104c-.045-11.135-9.085-20.131-20.21-20.131-.027 0-.055 0-.082 0-4.393.015-12.29-.513-15.593-4.26-2.855-3.24-2.853-9.261-2.616-11.288.349-2.138 2.87-20.867-15.292-23.878-21.433-3.554-24.622 17.471-24.622 17.471-.057.342-.164 1.044-.271 2.048l-4.518.065c-6.566.094-11.812 5.492-11.718 12.058.093 6.508 5.397 11.719 11.885 11.719.057 0 .116 0 .173-.001l6.395-.091c1.192 3.933 2.907 8.004 5.345 11.974l-5.994 5.14c-4.985 4.274-5.561 11.78-1.286 16.765 2.352 2.742 5.681 4.15 9.031 4.15 2.739 0 5.492-.941 7.734-2.864l7.669-6.576c5.155 2.959 10.616 4.894 15.978 6.117l-.561 7.733c-.475 6.549 4.448 12.244 10.997 12.719.293.021.584.032.873.032 6.175 0 11.392-4.773 11.846-11.029l.616-8.483c8.266-2.562 14.257-10.285 14.221-19.39z" fill="#10b8e0" data-original="#10b8e0" style=""/></g><g><path d="m283.252 300.972c-.027 0-.055 0-.082 0-4.393.015-12.29-.513-15.593-4.26-2.855-3.24-2.854-9.261-2.616-11.288.3-1.839 2.195-15.948-8.84-21.775v72.954c3.097 1.249 6.238 2.207 9.347 2.917l-.561 7.733c-.476 6.549 4.448 12.244 10.997 12.719.293.021.584.032.873.032 6.175 0 11.392-4.773 11.846-11.029l.616-8.483c8.269-2.561 14.26-10.284 14.224-19.39-.046-11.133-9.086-20.13-20.211-20.13z" fill="#00a2db" data-original="#00a2db" style=""/></g></g></g></svg>
